<svg width="51" height="51" viewBox="0 0 51 51" fill="none" xmlns="http://www.w3.org/2000/svg">
<path d="M34.5542 13.1515C34.3384 12.9802 34.091 12.8534 33.8261 12.7785C33.5613 12.7036 33.2842 12.6821 33.011 12.7151C32.7378 12.7481 32.4739 12.8351 32.2344 12.971C31.9948 13.1069 31.7845 13.2891 31.6156 13.5069L17.0268 32.321L9.87833 23.5829C9.71066 23.359 9.49985 23.1712 9.25842 23.0306C9.01699 22.89 8.74986 22.7995 8.47289 22.7645C8.19592 22.7294 7.91475 22.7506 7.64607 22.8266C7.3774 22.9026 7.12669 23.0321 6.90883 23.2072C6.69098 23.3822 6.51041 23.5995 6.37786 23.8459C6.2453 24.0923 6.16346 24.363 6.13718 24.6417C6.11091 24.9205 6.14074 25.2017 6.2249 25.4687C6.30906 25.7357 6.44584 25.983 6.62713 26.196L15.3178 37.0245C15.514 37.2671 15.7618 37.4624 16.0432 37.5963C16.3245 37.7301 16.6321 37.7991 16.9435 37.798C17.2739 37.8128 17.6032 37.7485 17.904 37.6103C18.2048 37.4722 18.4685 37.2642 18.6733 37.0036L34.9918 16.0991C35.1582 15.8775 35.2789 15.625 35.3471 15.3562C35.4152 15.0874 35.4293 14.8077 35.3885 14.5334C35.3478 14.259 35.253 13.9956 35.1098 13.7583C34.9665 13.5211 34.7777 13.3148 34.5542 13.1515Z" fill="black"/>
<path d="M45.4301 13.152C45.2112 12.9805 44.9603 12.8536 44.6916 12.7786C44.423 12.7036 44.142 12.682 43.8649 12.7151C43.5878 12.7482 43.32 12.8352 43.0771 12.9713C42.8342 13.1073 42.6209 13.2896 42.4495 13.5077L27.6522 32.339L26.3627 30.7697L23.6992 34.1593L26.0245 37.0259C26.2235 37.2686 26.4748 37.4642 26.7602 37.5982C27.0455 37.7321 27.3575 37.8011 27.6733 37.8001C27.9909 37.7986 28.304 37.7264 28.5894 37.5887C28.8749 37.4511 29.1253 37.2516 29.3222 37.005L45.874 16.0813C46.0394 15.8602 46.1592 15.609 46.2264 15.342C46.2937 15.075 46.3071 14.7976 46.2658 14.5255C46.2246 14.2534 46.1296 13.992 45.9861 13.7563C45.8427 13.5206 45.6538 13.3153 45.4301 13.152Z" fill="black"/>
<path d="M18.495 27.76L21.1882 24.1849L20.7707 23.6552C20.6058 23.4139 20.3965 23.2102 20.1553 23.0566C19.914 22.903 19.6459 22.8025 19.367 22.7613C19.0881 22.72 18.8041 22.7389 18.5323 22.8167C18.2604 22.8944 18.0063 23.0296 17.7851 23.2139C17.5707 23.396 17.3924 23.6211 17.2605 23.8763C17.1286 24.1315 17.0457 24.4117 17.0166 24.7009C16.9875 24.9901 17.0127 25.2824 17.0909 25.5613C17.169 25.8401 17.2986 26.0998 17.472 26.3255L18.495 27.76Z" fill="black"/>
</svg>
