<svg width="6" height="12" viewBox="0 0 6 12" fill="none" xmlns="http://www.w3.org/2000/svg">
<path d="M0.971436 9.63053e-05C1.09643 -0.000328709 1.21993 0.027258 1.33286 0.0808286C1.4458 0.134399 1.54529 0.212592 1.62404 0.309663L5.66514 5.32966C5.78819 5.47937 5.85547 5.66715 5.85547 5.86095C5.85547 6.05474 5.7882 6.24252 5.66514 6.39223L1.4818 11.4122C1.33979 11.5831 1.13572 11.6905 0.914481 11.7109C0.693244 11.7313 0.472965 11.663 0.302104 11.521C0.131243 11.379 0.0237946 11.1749 0.00339692 10.9537C-0.0170008 10.7324 0.0513228 10.5122 0.193337 10.3413L3.93324 5.85676L0.318837 1.37223C0.216527 1.24942 0.151537 1.09987 0.131557 0.941283C0.111578 0.782694 0.137446 0.621699 0.206099 0.477351C0.274752 0.333003 0.383318 0.211342 0.51895 0.126763C0.654583 0.0421845 0.811605 -0.00177095 0.971436 9.63053e-05Z" fill="#31364B"/>
</svg>
