<svg width="40" height="35" viewBox="0 0 40 35" fill="none" xmlns="http://www.w3.org/2000/svg">
<path d="M25.2085 30.7708L11.1669 18.5208C11.0002 18.375 10.8819 18.217 10.8119 18.0468C10.7419 17.8767 10.7074 17.6944 10.7085 17.5C10.7085 17.3055 10.743 17.1232 10.8119 16.9531C10.8807 16.7829 10.9991 16.625 11.1669 16.4791L25.2085 4.19267C25.5974 3.85239 26.0835 3.68225 26.6669 3.68225C27.2502 3.68225 27.7502 3.86454 28.1669 4.22913C28.5835 4.59371 28.7919 5.01906 28.7919 5.50517C28.7919 5.99128 28.5835 6.41663 28.1669 6.78121L15.9169 17.5L28.1669 28.2187C28.5557 28.559 28.7502 28.9785 28.7502 29.4773C28.7502 29.976 28.5419 30.4072 28.1252 30.7708C27.7085 31.1354 27.2224 31.3177 26.6669 31.3177C26.1113 31.3177 25.6252 31.1354 25.2085 30.7708Z" fill="#1195FF"/>
</svg>
