<svg width="55" height="54" viewBox="0 0 55 54" fill="none" xmlns="http://www.w3.org/2000/svg">
<path d="M26.9939 4.28333C22.6088 4.28333 18.3221 5.58367 14.676 8.01992C11.0299 10.4562 8.18811 13.9189 6.50999 17.9703C4.83187 22.0216 4.3928 26.4796 5.2483 30.7805C6.1038 35.0813 8.21544 39.032 11.3162 42.1327C14.417 45.2335 18.3676 47.3451 22.6685 48.2006C26.9693 49.0561 31.4273 48.6171 35.4787 46.9389C39.53 45.2608 42.9927 42.419 45.429 38.7729C47.8652 35.1268 49.1656 30.8401 49.1656 26.455C49.1656 23.5434 48.5921 20.6602 47.4779 17.9703C46.3637 15.2803 44.7305 12.8361 42.6717 10.7773C40.6128 8.71843 38.1687 7.08527 35.4787 5.97104C32.7887 4.85681 29.9056 4.28333 26.9939 4.28333ZM26.9939 44.1923C23.4858 44.1923 20.0565 43.152 17.1396 41.203C14.2227 39.254 11.9493 36.4838 10.6068 33.2428C9.26429 30.0017 8.91303 26.4353 9.59743 22.9946C10.2818 19.5539 11.9711 16.3934 14.4518 13.9128C16.9324 11.4322 20.0929 9.74287 23.5336 9.05848C26.9743 8.37408 30.5406 8.72534 33.7817 10.0678C37.0228 11.4103 39.793 13.6838 41.742 16.6007C43.691 19.5175 44.7313 22.9469 44.7313 26.455C44.7313 31.1592 42.8625 35.6708 39.5361 38.9972C36.2097 42.3236 31.6982 44.1923 26.9939 44.1923Z" fill="#000000"/>
<path d="M36.0579 24.9211H29.3646V18.2278C29.3646 17.6361 29.1295 17.0686 28.7111 16.6502C28.2927 16.2318 27.7252 15.9967 27.1335 15.9967C26.5417 15.9967 25.9742 16.2318 25.5558 16.6502C25.1374 17.0686 24.9023 17.6361 24.9023 18.2278V27.1523C24.9023 27.744 25.1374 28.3115 25.5558 28.7299C25.9742 29.1483 26.5417 29.3834 27.1335 29.3834H36.0579C36.6496 29.3834 37.2171 29.1483 37.6355 28.7299C38.0539 28.3115 38.289 27.744 38.289 27.1523C38.289 26.5605 38.0539 25.993 37.6355 25.5746C37.2171 25.1562 36.6496 24.9211 36.0579 24.9211Z" fill="#000000"/>
</svg>
