<svg width="51" height="51" viewBox="0 0 51 51" fill="none" xmlns="http://www.w3.org/2000/svg">
<path d="M25.3581 4.33337C21.2212 4.33337 17.1771 5.56012 13.7374 7.85847C10.2977 10.1568 7.61673 13.4236 6.0336 17.2456C4.45047 21.0676 4.03625 25.2732 4.84332 29.3307C5.6504 33.3881 7.64252 37.1151 10.5678 40.0404C13.493 42.9656 17.22 44.9577 21.2774 45.7648C25.3349 46.5719 29.5405 46.1577 33.3625 44.5745C37.1846 42.9914 40.4513 40.3104 42.7496 36.8707C45.048 33.431 46.2747 29.387 46.2747 25.25C46.2747 22.5032 45.7337 19.7833 44.6826 17.2456C43.6314 14.7079 42.0907 12.402 40.1484 10.4597C38.2061 8.51743 35.9003 6.97672 33.3625 5.92556C30.8248 4.8744 28.1049 4.33337 25.3581 4.33337ZM25.3581 41.9834C22.0485 41.9834 18.8133 41.002 16.0615 39.1633C13.3098 37.3246 11.165 34.7112 9.8985 31.6536C8.63199 28.596 8.30062 25.2315 8.94627 21.9855C9.59193 18.7396 11.1856 15.758 13.5258 13.4178C15.866 11.0776 18.8476 9.48389 22.0936 8.83823C25.3395 8.19257 28.704 8.52395 31.7616 9.79046C34.8193 11.057 37.4326 13.2017 39.2713 15.9535C41.11 18.7053 42.0914 21.9405 42.0914 25.25C42.0914 29.688 40.3284 33.9442 37.1903 37.0823C34.0522 40.2204 29.796 41.9834 25.3581 41.9834Z" fill="black"/>
<path d="M30.5975 19.1742C30.4034 18.9785 30.1726 18.8232 29.9182 18.7172C29.6638 18.6112 29.3909 18.5566 29.1153 18.5566C28.8397 18.5566 28.5668 18.6112 28.3124 18.7172C28.0581 18.8232 27.8272 18.9785 27.6331 19.1742L24.94 21.8881L22.247 19.1742C21.8539 18.781 21.3207 18.5602 20.7648 18.5602C20.2088 18.5602 19.6757 18.781 19.2826 19.1742C18.8894 19.5673 18.6686 20.1004 18.6686 20.6564C18.6686 21.2123 18.8894 21.7455 19.2826 22.1386L21.9965 24.8316L19.2826 27.5247C19.0869 27.7188 18.9316 27.9497 18.8256 28.204C18.7196 28.4584 18.665 28.7313 18.665 29.0069C18.665 29.2825 18.7196 29.5554 18.8256 29.8098C18.9316 30.0642 19.0869 30.295 19.2826 30.4891C19.4766 30.6848 19.7075 30.8401 19.9619 30.9461C20.2163 31.0521 20.4892 31.1066 20.7648 31.1066C21.0404 31.1066 21.3132 31.0521 21.5676 30.9461C21.822 30.8401 22.0529 30.6848 22.247 30.4891L24.94 27.7752L27.6331 30.4891C27.8272 30.6848 28.0581 30.8401 28.3124 30.9461C28.5668 31.0521 28.8397 31.1066 29.1153 31.1066C29.3909 31.1066 29.6638 31.0521 29.9182 30.9461C30.1726 30.8401 30.4034 30.6848 30.5975 30.4891C30.7932 30.295 30.9485 30.0642 31.0545 29.8098C31.1605 29.5554 31.215 29.2825 31.215 29.0069C31.215 28.7313 31.1605 28.4584 31.0545 28.204C30.9485 27.9497 30.7932 27.7188 30.5975 27.5247L27.8836 24.8316L30.5975 22.1386C30.7932 21.9445 30.9485 21.7136 31.0545 21.4592C31.1605 21.2048 31.215 20.932 31.215 20.6564C31.215 20.3808 31.1605 20.1079 31.0545 19.8535C30.9485 19.5991 30.7932 19.3682 30.5975 19.1742Z" fill="black"/>
</svg>
