<svg width="36" height="36" viewBox="0 0 36 36" fill="none" xmlns="http://www.w3.org/2000/svg">
<rect width="36" height="36" rx="5" fill="#2B8761" fill-opacity="0.1"/>
<path fill-rule="evenodd" clip-rule="evenodd" d="M15.032 25C21.0696 25 24.372 19.6132 24.372 14.9423C24.372 14.7889 24.372 14.6365 24.3624 14.4848C25.0048 13.9852 25.5592 13.3649 26 12.6551C25.4016 12.9411 24.7656 13.1289 24.1152 13.2116C24.8 12.7696 25.3128 12.0753 25.5584 11.256C24.9136 11.6678 24.2088 11.9581 23.4736 12.1141C22.2304 10.6909 20.1512 10.622 18.8288 11.9607C17.9768 12.8239 17.6144 14.111 17.8792 15.3386C15.24 15.1956 12.7808 13.8534 11.1136 11.6454C10.2424 13.2607 10.688 15.3265 12.1304 16.3637C11.608 16.3473 11.0968 16.1957 10.64 15.9218V15.9666C10.6408 17.649 11.7424 19.098 13.2736 19.4314C12.7904 19.5736 12.2832 19.5942 11.792 19.4917C12.2216 20.9321 13.4544 21.9185 14.8584 21.9469C13.696 22.9307 12.26 23.4649 10.7816 23.4631C10.5208 23.4623 10.26 23.4459 10 23.4123C11.5016 24.4495 13.248 25 15.032 24.9974" fill="black"/>
</svg>
