<svg width="36" height="36" viewBox="0 0 36 36" fill="none" xmlns="http://www.w3.org/2000/svg">
<rect width="36" height="36" rx="5" fill="#2B8761" fill-opacity="0.1"/>
<path fill-rule="evenodd" clip-rule="evenodd" d="M26 25H22.9231V19.3967C22.9231 17.8596 22.2715 17.0022 21.1031 17.0022C19.8315 17.0022 19.0769 17.8956 19.0769 19.3967V25H16V14.5924H19.0769V15.7629C19.0769 15.7629 20.0423 14 22.2177 14C24.3938 14 26 15.3818 26 18.2415C26 21.1004 26 25 26 25ZM11.5003 12C10.6715 12 10 11.3282 10 10.4997C10 9.67181 10.6715 9 11.5003 9C12.3285 9 13 9.67181 13 10.4997C13.0006 11.3282 12.3285 12 11.5003 12ZM10 25H13V15H10V25Z" fill="black"/>
</svg>
