<svg width="25" height="25" viewBox="0 0 25 25" fill="none" xmlns="http://www.w3.org/2000/svg">
<path d="M18.3594 16.2109C17.6636 16.2109 17.0215 16.4551 16.5186 16.8628L11.46 13.2031C11.5447 12.7382 11.5447 12.2618 11.46 11.7969L16.5186 8.13721C17.0215 8.54492 17.6636 8.78906 18.3594 8.78906C19.9756 8.78906 21.2891 7.47559 21.2891 5.85938C21.2891 4.24316 19.9756 2.92969 18.3594 2.92969C16.7432 2.92969 15.4297 4.24316 15.4297 5.85938C15.4297 6.14258 15.4688 6.41357 15.5444 6.67236L10.7397 10.1514C10.0269 9.20654 8.89404 8.59375 7.61719 8.59375C5.45898 8.59375 3.71094 10.3418 3.71094 12.5C3.71094 14.6582 5.45898 16.4062 7.61719 16.4062C8.89404 16.4062 10.0269 15.7935 10.7397 14.8486L15.5444 18.3276C15.4688 18.5864 15.4297 18.8599 15.4297 19.1406C15.4297 20.7568 16.7432 22.0703 18.3594 22.0703C19.9756 22.0703 21.2891 20.7568 21.2891 19.1406C21.2891 17.5244 19.9756 16.2109 18.3594 16.2109ZM18.3594 4.58984C19.0601 4.58984 19.6289 5.15869 19.6289 5.85938C19.6289 6.56006 19.0601 7.12891 18.3594 7.12891C17.6587 7.12891 17.0898 6.56006 17.0898 5.85938C17.0898 5.15869 17.6587 4.58984 18.3594 4.58984ZM7.61719 14.6484C6.43311 14.6484 5.46875 13.6841 5.46875 12.5C5.46875 11.3159 6.43311 10.3516 7.61719 10.3516C8.80127 10.3516 9.76562 11.3159 9.76562 12.5C9.76562 13.6841 8.80127 14.6484 7.61719 14.6484ZM18.3594 20.4102C17.6587 20.4102 17.0898 19.8413 17.0898 19.1406C17.0898 18.4399 17.6587 17.8711 18.3594 17.8711C19.0601 17.8711 19.6289 18.4399 19.6289 19.1406C19.6289 19.8413 19.0601 20.4102 18.3594 20.4102Z" fill="black"/>
</svg>
