<svg width="55" height="54" viewBox="0 0 55 54" fill="none" xmlns="http://www.w3.org/2000/svg">
<path d="M26.994 4.28333C26.4393 4.28333 25.9072 4.52573 25.515 4.95722C25.1227 5.38871 24.9023 5.97394 24.9023 6.58416V11.1858C24.9023 11.796 25.1227 12.3813 25.515 12.8128C25.9072 13.2443 26.4393 13.4867 26.994 13.4867C27.5488 13.4867 28.0808 13.2443 28.473 12.8128C28.8653 12.3813 29.0857 11.796 29.0857 11.1858V6.58416C29.0857 5.97394 28.8653 5.38871 28.473 4.95722C28.0808 4.52573 27.5488 4.28333 26.994 4.28333Z" fill="black"/>
<path d="M47.7013 24.3633H43.0997C42.4894 24.3633 41.9042 24.5837 41.4727 24.9759C41.0412 25.3682 40.7988 25.9002 40.7988 26.4549C40.7988 27.0097 41.0412 27.5417 41.4727 27.934C41.9042 28.3262 42.4894 28.5466 43.0997 28.5466H47.7013C48.3115 28.5466 48.8968 28.3262 49.3283 27.934C49.7598 27.5417 50.0022 27.0097 50.0022 26.4549C50.0022 25.9002 49.7598 25.3682 49.3283 24.9759C48.8968 24.5837 48.3115 24.3633 47.7013 24.3633Z" fill="black"/>
<path d="M14.0256 26.4549C14.0256 25.9002 13.7832 25.3682 13.3517 24.9759C12.9202 24.5837 12.335 24.3633 11.7248 24.3633H7.1231C6.51288 24.3633 5.92765 24.5837 5.49616 24.9759C5.06467 25.3682 4.82227 25.9002 4.82227 26.4549C4.82227 27.0097 5.06467 27.5417 5.49616 27.934C5.92765 28.3262 6.51288 28.5466 7.1231 28.5466H11.7248C12.335 28.5466 12.9202 28.3262 13.3517 27.934C13.7832 27.5417 14.0256 27.0097 14.0256 26.4549Z" fill="black"/>
<path d="M14.353 11.586C13.9333 11.1798 13.3732 10.9609 12.7958 10.9774C12.2184 10.994 11.671 11.2446 11.2742 11.6741C10.8773 12.1037 10.6634 12.677 10.6796 13.2679C10.6957 13.8589 10.9406 14.419 11.3603 14.8252L14.4607 17.8882C14.6687 18.0938 14.9151 18.2544 15.1852 18.3604C15.4552 18.4664 15.7434 18.5157 16.0324 18.5052C16.3224 18.5041 16.6093 18.443 16.8756 18.3256C17.142 18.2082 17.3825 18.0369 17.5826 17.8221C17.9836 17.4092 18.2087 16.8507 18.2087 16.2686C18.2087 15.6864 17.9836 15.1279 17.5826 14.715L14.353 11.586Z" fill="black"/>
<path d="M38.7471 18.5066C39.3244 18.5043 39.8785 18.2796 40.2942 17.8793L43.5229 14.7656C43.9168 14.3544 44.1393 13.8089 44.1451 13.2397C44.151 12.6706 43.9398 12.1206 43.5545 11.7015C43.1692 11.2823 42.6386 11.0253 42.0705 10.9828C41.5025 10.9403 40.9395 11.1154 40.496 11.4726L37.2672 14.6536C36.8496 15.0733 36.6152 15.641 36.6152 16.2328C36.6152 16.8246 36.8496 17.3924 37.2672 17.8121C37.6555 18.2214 38.1839 18.4694 38.7471 18.5066Z" fill="black"/>
<path d="M26.994 40.2599C26.4393 40.2599 25.9072 40.5023 25.515 40.9338C25.1227 41.3653 24.9023 41.9505 24.9023 42.5607V47.1624C24.9023 47.7726 25.1227 48.3578 25.515 48.7893C25.9072 49.2208 26.4393 49.4632 26.994 49.4632C27.5488 49.4632 28.0808 49.2208 28.473 48.7893C28.8653 48.3578 29.0857 47.7726 29.0857 47.1624V42.5607C29.0857 41.9505 28.8653 41.3653 28.473 40.9338C28.0808 40.5023 27.5488 40.2599 26.994 40.2599Z" fill="black"/>
<path d="M40.3147 35.8579C39.8981 35.4522 39.3388 35.23 38.7599 35.2403C38.1809 35.2507 37.6298 35.4926 37.2277 35.913C36.8255 36.3333 36.6053 36.8976 36.6156 37.4818C36.6258 38.0659 36.8656 38.622 37.2822 39.0278L40.4238 42.1536C40.8282 42.5469 41.3674 42.7677 41.9291 42.77C42.2214 42.7717 42.5111 42.7141 42.781 42.6007C43.0508 42.4872 43.2953 42.3202 43.4999 42.1096C43.7044 41.9049 43.8667 41.6615 43.9775 41.3932C44.0882 41.125 44.1452 40.8373 44.1452 40.5467C44.1452 40.2561 44.0882 39.9683 43.9775 39.7001C43.8667 39.4318 43.7044 39.1884 43.4999 38.9837L40.3147 35.8579Z" fill="black"/>
<path d="M14.4877 35.8017L11.3278 38.9161C11.1221 39.1244 10.9589 39.3722 10.8475 39.6453C10.7361 39.9183 10.6787 40.2111 10.6787 40.5069C10.6787 40.8027 10.7361 41.0956 10.8475 41.3686C10.9589 41.6416 11.1221 41.8894 11.3278 42.0977C11.5336 42.3121 11.7795 42.4821 12.0509 42.5976C12.3224 42.7131 12.6137 42.7717 12.9077 42.7699C13.4487 42.7746 13.9723 42.5751 14.378 42.2098L17.5379 39.0954C17.9569 38.6824 18.1981 38.1163 18.2084 37.5218C18.2187 36.9272 17.9972 36.3528 17.5927 35.925C17.1882 35.4971 16.6339 35.2508 16.0516 35.2403C15.4693 35.2298 14.9067 35.456 14.4877 35.8689V35.8017Z" fill="black"/>
</svg>
