<svg width="16" height="16" viewBox="0 0 16 16" fill="none" xmlns="http://www.w3.org/2000/svg">
<path fill-rule="evenodd" clip-rule="evenodd" d="M15.1579 13.3333V14.2222C15.1579 15.2 14.4 16 13.4737 16H1.68421C0.749474 16 0 15.2 0 14.2222V1.77778C0 0.8 0.749474 0 1.68421 0H13.4737C14.4 0 15.1579 0.8 15.1579 1.77778V2.66667H7.57895C6.64421 2.66667 5.89474 3.46667 5.89474 4.44444V11.5556C5.89474 12.5333 6.64421 13.3333 7.57895 13.3333H15.1579ZM7.57903 11.5557H16.0001V4.4446H7.57903V11.5557ZM10.9474 9.33347C10.2484 9.33347 9.68421 8.73792 9.68421 8.00014C9.68421 7.26236 10.2484 6.66681 10.9474 6.66681C11.6463 6.66681 12.2105 7.26236 12.2105 8.00014C12.2105 8.73792 11.6463 9.33347 10.9474 9.33347Z" fill="#1195FF"/>
</svg>
