<svg width="14" height="17" viewBox="0 0 14 17" fill="none" xmlns="http://www.w3.org/2000/svg">
<path d="M6.01424 16.4148C6.90321 16.653 7.81934 16.1434 8.06365 15.2316L4.83102 14.3654C4.71321 14.8051 5.20281 14.998 5.42263 15.3901C5.64244 15.7822 5.58557 16.2999 6.01424 16.4148ZM12.1625 12.8651L13.2452 8.82434C13.927 6.27968 13.6887 3.48401 11.5284 2.30106C11.7127 1.61309 11.0159 0.431382 10.3451 0.251649C9.67438 0.0719168 9.28824 0.96345 9.1039 1.65142C6.63346 1.59357 4.23135 3.67285 3.54729 6.2258L2.46456 10.2666L0.415158 11.4498L0.198612 12.258L13.1291 15.7227L13.3457 14.9145L12.1625 12.8651Z" fill="#E42346"/>
</svg>
